<svg width="603" height="603" viewBox="0 0 603 603" fill="none" xmlns="http://www.w3.org/2000/svg">
<path fill-rule="evenodd" clip-rule="evenodd" d="M175.263 603L123.952 551.681H51.3109V479.028L0 427.709L51.3109 376.39V303.738H123.952L175.263 252.419L226.424 303.738H299.065V376.39L350.376 427.709L299.065 479.028H299.214V551.681H226.574L175.263 603ZM427.492 0L376.181 51.3191H303.54V123.972L252.378 175.291L303.689 226.61V299.262H376.33L427.641 350.581L478.952 299.262H551.592V226.61H551.443L602.754 175.291L551.443 123.972V51.3191H478.803L427.492 0ZM475.223 290.162L427.492 337.901L379.91 290.311H312.639V222.88L265.057 175.291L312.639 127.701V60.4193H379.91L427.492 12.8298L475.223 60.4193H542.494V127.701L590.076 175.291L542.494 222.88V290.162H475.223ZM175.263 590.17L222.845 542.581H290.116V475.299L337.697 427.709L290.116 380.12V312.838H222.845L175.113 265.248L127.532 312.838H60.2605V380.12L12.6786 427.709L60.4097 475.299V542.581H127.681L175.263 590.17ZM253.124 395.486L285.342 427.709L252.975 459.933V505.583H207.332L175.113 537.807L142.895 505.583H97.2521V459.933L65.0336 427.709L97.4013 395.486V349.835H143.044L175.263 317.612L207.481 349.835H253.124V395.486ZM203.752 496.632H244.174V456.203L272.664 427.709L244.174 399.215V358.786H203.752L175.263 330.292L146.773 358.786H106.351V399.215L77.8613 427.709L106.351 456.203V496.632H146.773L175.263 525.126L203.752 496.632ZM505.502 143.067L537.721 175.291L505.502 207.514V253.165H459.859L427.492 285.537L395.273 253.165H349.63V207.514L317.412 175.291L349.63 143.067V97.4169H395.273L427.492 65.1932L459.859 97.4169H505.502V143.067ZM455.981 244.214H496.403V203.785L524.893 175.291L496.403 146.797V106.368H455.981L427.492 77.8738L399.002 106.368H358.58V146.797L330.09 175.291L358.58 203.785V244.214H399.002L427.492 272.708L455.981 244.214ZM408.399 473.359H379.91V444.865L359.773 424.726L379.91 404.586V376.092H408.399L428.536 355.952L448.672 376.092H477.162V404.586L497.298 424.726L477.162 444.865V473.359H448.672L428.536 493.499L408.399 473.359ZM410.786 467.243L428.536 484.996L446.286 467.243H471.345V442.18L489.095 424.576L471.345 406.824V381.761H446.286L428.536 364.008L410.786 381.761H385.727V406.824L367.977 424.427L385.727 442.18V467.243H410.786ZM397.361 455.756H415.559L428.387 468.586L441.214 455.756H459.412V437.555L472.239 424.726L459.412 411.896V393.695H441.214L428.387 380.866L415.559 393.695H397.361V411.896L384.534 424.726L397.361 437.555V455.756ZM428.536 460.082L418.095 449.639H403.328V434.87L392.887 424.427L403.328 413.984V399.215H418.095L428.536 388.772L438.977 399.215H453.744V413.984L464.185 424.427L453.744 434.87V449.639H438.977L428.536 460.082ZM154.977 224.074H126.487V195.58L106.202 175.291L126.338 155.151V126.657H154.828L174.964 106.517L195.101 126.657H223.59V155.151L244.025 175.291L223.74 195.58V224.074H195.25L175.113 244.214L154.977 224.074ZM157.363 217.957L175.113 235.71L192.863 218.106H217.922V193.044L235.672 175.44L217.773 157.687V132.624H192.714L175.113 114.871L157.363 132.624H132.305V157.687L114.704 175.291L132.454 193.044V218.106L157.363 217.957ZM144.088 206.47H162.286L175.263 219.151L188.09 206.321H206.288V188.12L219.116 175.291L206.288 162.461V144.261H188.09L175.113 131.431L162.286 144.261H144.088V162.461L131.261 175.291L144.088 188.12V206.47ZM175.263 210.796L164.821 200.354L150.055 200.503V185.734L139.613 175.291L150.055 164.848V150.228L164.821 149.929L175.263 139.487L185.704 149.929H200.471V164.699L210.912 175.142L200.471 185.584V200.354H185.704L175.263 210.796ZM349.034 365.649L338.742 369.975L334.416 359.682L324.124 355.355L328.45 345.062L324.124 334.768L334.416 330.442L338.742 320.148L349.034 324.474L359.326 320.148L363.651 330.442L373.943 334.768L369.618 345.062L373.943 355.355L363.651 359.682L359.326 369.975L349.034 365.649ZM357.237 364.903L360.668 356.698L368.872 353.267L365.441 345.062L368.872 336.857L360.668 333.425L357.237 325.22L349.034 328.651L340.83 325.22L337.399 333.425L329.195 336.857L332.626 345.062L329.195 353.267L337.399 356.698L340.83 364.903L349.034 361.472L357.237 364.903ZM342.321 361.323L349.034 358.488L355.746 361.323L358.58 354.609L365.292 351.775L362.458 345.062L365.292 338.348L358.58 335.514L355.746 328.801L349.034 331.635L342.321 328.801L339.487 335.514L332.775 338.348L335.609 345.062L332.775 351.775L339.487 354.609L342.321 361.323ZM355.597 351.775L353.658 356.4L349.034 354.46L344.41 356.4L342.471 351.775L337.847 349.835L339.786 345.211L337.847 340.586L342.471 338.647L344.41 334.022L349.034 335.961L353.658 334.022L355.597 338.647L360.221 340.586L358.282 345.211L360.221 349.835L355.597 351.775ZM252.378 275.393L240.893 280.167L236.12 268.68L224.634 263.906L229.408 252.419L224.634 240.931L236.12 236.158L240.893 224.67L252.378 229.444L263.863 224.67L268.637 236.158L280.122 240.931L275.349 252.419L280.122 263.906L268.637 268.68L263.863 280.167L252.378 275.393ZM261.626 274.945L265.504 265.696L274.752 261.817L270.874 252.568L274.752 243.318L265.504 239.44L261.626 230.19L252.378 233.771L243.13 229.892L239.252 239.141L230.004 243.02L233.882 252.269L230.004 261.519L239.252 265.398L243.13 274.647L252.378 270.768L261.626 274.945ZM244.92 270.47L252.378 267.337L259.836 270.47L262.969 263.011L270.426 259.878L267.294 252.419L270.426 244.959L262.969 241.827L259.836 234.367L252.378 237.5L244.92 234.367L241.788 241.827L234.33 244.959L237.462 252.419L234.33 259.878L241.788 263.011L244.92 270.47ZM259.836 259.878L257.599 265.248L252.527 263.16L247.158 265.398L244.92 260.027L239.55 257.789L241.788 252.419L239.55 247.048L244.771 244.959L247.008 239.589L252.229 241.528L257.599 239.29L259.836 244.661L265.206 246.899L262.969 252.269L265.206 257.64L259.836 259.878ZM87.1092 275.393L75.6239 280.167L70.8508 268.68L59.3655 263.906L64.1387 252.419L59.3655 240.931L70.8508 236.158L75.6239 224.67L87.1092 229.444L98.5945 224.67L103.368 236.158L114.853 240.931L110.08 252.419L114.853 263.906L103.368 268.68L98.5945 280.167L87.1092 275.393ZM96.3571 274.945L100.235 265.696L109.483 261.817L105.605 252.568L109.483 243.318L100.235 239.44L96.3571 230.19L87.1092 234.069L77.8613 230.19L73.9832 239.44L64.7353 243.318L68.6134 252.568L64.7353 261.817L73.9832 265.696L77.8613 274.945L87.1092 271.067L96.3571 274.945Z" fill="url(#paint0_linear_125_17)"/>
<defs>
<linearGradient id="paint0_linear_125_17" x1="745.202" y1="152.466" x2="745.202" y2="721.601" gradientUnits="userSpaceOnUse">
<stop stop-color="white"/>
<stop offset="1" stop-color="#C4E7CE"/>
</linearGradient>
</defs>
</svg>
