<svg width="573" height="573" fill="none" xmlns="http://www.w3.org/2000/svg">
<path d="M571.97 399.935C562.358 386.766 560.314 369.206 558.195 350.663C555.47 326.595 552.594 301.77 531.932 286.481C552.594 271.193 555.47 246.368 558.195 222.299C560.314 203.756 562.358 186.197 571.97 173.028C573.03 171.59 573.257 169.697 572.575 167.957C571.894 166.292 570.381 165.081 568.564 164.854C552.443 162.356 538.592 151.381 523.985 139.726C504.988 124.664 485.461 109.148 460.03 112.933C463.89 87.5021 448.299 67.9751 433.237 48.9778C421.581 34.3704 410.607 20.5198 408.109 4.39862C407.806 2.58215 406.671 1.06843 405.006 0.387253C403.341 -0.293924 401.449 -0.0668743 399.935 0.992734C386.766 10.6049 369.206 12.6484 350.663 14.7676C326.595 17.4924 301.77 20.3684 286.481 41.0308C271.193 20.3684 246.368 17.4924 222.299 14.7676C203.756 12.6484 186.197 10.6049 173.028 0.992734C171.59 -0.0668743 169.697 -0.293924 167.957 0.387253C166.292 1.06843 165.081 2.58215 164.854 4.39862C162.356 20.5198 151.381 34.3704 139.726 48.9778C124.664 67.9751 109.148 87.5021 112.933 112.933C87.5022 109.148 67.8994 124.664 48.9778 139.726C34.3704 151.381 20.5198 162.356 4.39862 164.854C2.58215 165.156 1.06843 166.292 0.387249 167.957C-0.293928 169.622 -0.0668664 171.514 0.992741 173.028C10.6049 186.197 12.6484 203.756 14.7676 222.299C17.4923 246.368 20.3684 271.193 41.0308 286.481C20.3684 301.77 17.4923 326.595 14.7676 350.663C12.6484 369.206 10.6049 386.766 0.992741 399.935C-0.0668664 401.373 -0.293928 403.265 0.387249 405.006C1.06843 406.671 2.58215 407.882 4.39862 408.109C20.5198 410.607 34.3704 421.581 48.9778 433.237C65.9316 446.709 83.4151 460.635 105.137 460.635C107.635 460.635 110.284 460.484 112.933 460.03C109.073 485.461 124.664 505.063 139.726 523.985C151.381 538.592 162.356 552.443 164.854 568.564C165.156 570.381 166.292 571.894 167.957 572.575C169.622 573.257 171.514 573.03 173.028 571.97C186.197 562.358 203.756 560.314 222.299 558.195C246.368 555.47 271.193 552.594 286.481 531.932C301.77 552.594 326.595 555.47 350.663 558.195C369.206 560.314 386.766 562.358 399.935 571.97C400.843 572.651 401.903 572.954 402.963 572.954C403.644 572.954 404.325 572.802 404.93 572.575C406.595 571.894 407.806 570.381 408.034 568.564C410.531 552.443 421.506 538.592 433.161 523.985C448.223 504.988 463.739 485.461 459.954 460.03C485.385 463.814 504.912 448.299 523.909 433.237C538.517 421.581 552.367 410.607 568.488 408.109C570.305 407.806 571.819 406.671 572.5 405.006C573.332 403.341 573.105 401.449 571.97 399.935ZM518.611 146.537C532.083 157.209 545.934 168.259 562.055 172.346C553.578 186.651 551.535 204.286 549.567 221.315C546.766 245.762 544.117 268.922 523.455 281.713C513.313 275.204 506.88 263.7 500.144 251.439C491.137 235.242 481.903 218.591 463.057 213.293C472.67 196.263 467.372 177.872 462.301 160.085C458.441 146.689 454.883 133.974 457.381 122.242C481.071 116.717 499.311 131.249 518.611 146.537ZM454.051 410.455C450.493 422.868 446.861 435.659 448.299 448.223C435.81 446.785 422.944 450.418 410.531 453.975C394.259 458.668 378.743 463.057 364.968 456.019C366.709 453.824 367.768 451.175 368.147 448.223C370.493 426.501 370.493 393.956 357.399 362.319C356.113 359.216 354.75 356.188 353.161 353.085C356.188 354.599 359.292 356.037 362.395 357.324C394.032 370.417 426.577 370.417 448.299 368.071C451.25 367.768 453.899 366.633 456.094 364.892C463.133 378.667 458.668 394.183 454.051 410.455ZM286.557 515.205C278.761 505.29 267.106 498.857 255.753 492.575C240.918 484.325 226.841 476.53 222.072 461.846C224.873 461.544 227.522 460.408 229.792 458.516C246.822 444.817 269.83 421.808 282.924 390.172C284.211 387.068 285.346 383.89 286.481 380.711C287.541 383.965 288.752 387.144 290.039 390.172C303.132 421.808 326.141 444.817 343.17 458.516C345.517 460.408 348.166 461.468 350.966 461.846C346.198 476.53 332.12 484.401 317.286 492.575C306.008 498.857 294.353 505.29 286.557 515.205ZM119.063 410.455C114.371 394.183 109.981 378.667 117.02 364.892C119.215 366.633 121.864 367.693 124.815 367.995C146.537 370.342 179.083 370.342 210.719 357.248C213.823 355.961 216.85 354.599 219.953 353.01C218.439 356.037 217.001 359.14 215.715 362.243C202.621 393.88 202.621 426.425 204.967 448.147C205.27 451.099 206.405 453.748 208.146 455.943C194.371 462.982 178.855 458.516 162.583 453.899C150.17 450.342 137.379 446.709 124.815 448.147C126.329 435.659 122.621 422.868 119.063 410.455ZM119.063 162.583C122.621 150.17 126.254 137.379 124.815 124.815C137.379 126.254 150.17 122.621 162.583 119.063C178.855 114.371 194.371 109.981 208.146 117.02C206.405 119.215 205.346 121.864 204.967 124.815C202.621 146.537 202.621 179.083 215.715 210.719C217.001 213.823 218.364 216.85 219.953 219.953C216.926 218.439 213.823 217.001 210.719 215.715C179.083 202.621 146.537 202.621 124.815 204.967C121.864 205.27 119.215 206.405 117.02 208.07C109.981 194.295 114.446 178.856 119.063 162.583ZM286.557 57.8331C294.353 67.748 306.008 74.1814 317.361 80.4633C332.196 88.7131 346.274 96.5088 351.042 111.192C348.241 111.495 345.592 112.63 343.246 114.522C326.217 128.221 303.208 151.23 290.114 182.867C288.828 185.97 287.692 189.149 286.557 192.328C285.497 189.073 284.286 185.894 283 182.867C269.906 151.23 246.897 128.221 229.868 114.522C227.597 112.63 224.873 111.57 222.148 111.192C226.916 96.5088 240.994 88.6374 255.828 80.4633C267.106 74.1814 278.686 67.6723 286.557 57.8331ZM454.051 162.583C458.743 178.856 463.133 194.371 456.094 208.146C453.899 206.405 451.25 205.346 448.299 204.967C426.577 202.621 394.032 202.621 362.395 215.715C359.292 217.001 356.264 218.364 353.161 219.953C354.675 216.926 356.113 213.823 357.399 210.719C370.417 179.083 370.417 146.537 368.071 124.815C367.768 121.864 366.633 119.215 364.892 117.02C378.667 109.981 394.183 114.446 410.455 119.063C422.868 122.621 435.659 126.254 448.223 124.815C446.785 137.304 450.493 150.095 454.051 162.583ZM451.856 224.419C438.762 240.615 416.889 262.64 386.917 274.977C380.711 277.55 374.126 279.67 367.239 281.41C366.33 277.777 364.438 274.523 361.789 271.798L353.766 263.775C351.496 261.505 350.209 258.402 350.209 255.147V243.719C350.209 239.859 349.15 236.15 347.257 233.047C353.312 229.414 359.519 226.235 365.725 223.662C395.697 211.249 426.652 211.325 447.39 213.52C449.131 213.671 450.645 214.504 451.704 215.715C451.629 216.472 451.704 217.228 452.007 217.91C452.31 218.591 452.764 219.196 453.37 219.65C453.37 221.391 452.915 223.056 451.856 224.419ZM453.294 353.237C452.688 353.691 452.234 354.296 451.932 354.977C451.629 355.659 451.553 356.415 451.629 357.172C450.569 358.383 449.055 359.216 447.315 359.443C426.577 361.638 395.545 361.714 365.649 349.301C359.443 346.728 353.237 343.549 347.182 339.916C349.074 336.813 350.134 333.18 350.134 329.244V317.815C350.134 314.561 351.42 311.534 353.691 309.187L361.714 301.165C364.438 298.44 366.255 295.185 367.163 291.552C374.05 293.293 380.635 295.412 386.841 297.986C416.813 310.398 438.686 332.347 451.78 348.544C452.915 349.982 453.37 351.572 453.294 353.237ZM359.519 447.315C359.367 449.055 358.535 450.569 357.324 451.629C356.567 451.553 355.81 451.629 355.129 451.932C354.448 452.234 353.842 452.688 353.388 453.294C351.723 453.445 350.134 452.915 348.771 451.856C332.574 438.762 310.55 416.889 298.213 386.917C295.639 380.711 293.52 374.126 291.779 367.239C295.412 366.33 298.667 364.438 301.392 361.789L309.414 353.766C311.685 351.496 314.788 350.209 318.043 350.209H329.471C333.331 350.209 337.04 349.15 340.143 347.257C343.776 353.312 346.955 359.519 349.528 365.725C361.714 395.545 361.714 426.577 359.519 447.315ZM219.802 453.218C219.348 452.613 218.742 452.159 218.061 451.856C217.531 451.629 217.001 451.553 216.396 451.553C216.245 451.553 216.017 451.553 215.866 451.629C214.655 450.569 213.823 449.055 213.595 447.315C211.401 426.577 211.325 395.545 223.737 365.649C226.311 359.443 229.49 353.237 233.123 347.182C236.226 349.074 239.859 350.134 243.794 350.134H255.223C258.477 350.134 261.505 351.42 263.851 353.691L271.874 361.714C274.599 364.438 277.853 366.255 281.486 367.163C279.745 374.05 277.626 380.635 275.053 386.841C262.64 416.813 240.691 438.686 224.494 451.78C223.056 452.84 221.467 453.37 219.802 453.218ZM121.183 354.977C120.88 354.296 120.426 353.691 119.82 353.237C119.744 351.572 120.199 349.982 121.258 348.62C134.352 332.423 156.225 310.398 186.197 298.061C192.403 295.488 198.988 293.369 205.875 291.628C206.784 295.261 208.676 298.515 211.325 301.24L219.348 309.263C221.618 311.534 222.905 314.637 222.905 317.891V329.32C222.905 333.18 223.965 336.888 225.857 339.992C219.802 343.625 213.595 346.803 207.389 349.377C177.417 361.789 146.462 361.714 125.724 359.519C123.983 359.367 122.545 358.535 121.41 357.324C121.561 356.491 121.485 355.734 121.183 354.977ZM119.82 219.802C120.426 219.348 120.88 218.742 121.183 218.061C121.485 217.38 121.561 216.623 121.485 215.866C122.545 214.655 124.059 213.823 125.799 213.671C146.537 211.476 177.569 211.401 207.465 223.813C213.671 226.386 219.877 229.565 225.932 233.198C224.04 236.301 222.981 239.934 222.981 243.87V255.299C222.981 258.553 221.694 261.581 219.423 263.927L211.401 271.95C208.676 274.674 206.859 277.929 205.951 281.562C199.064 279.821 192.479 277.702 186.273 275.128C156.301 262.716 134.428 240.767 121.334 224.57C120.199 223.056 119.669 221.391 119.82 219.802ZM213.595 125.724C213.747 123.983 214.579 122.469 215.79 121.41C216.547 121.485 217.304 121.41 217.985 121.107C218.666 120.804 219.272 120.35 219.726 119.744C221.391 119.669 222.981 120.123 224.343 121.183C240.54 134.276 262.565 156.15 274.901 186.121C277.475 192.328 279.594 198.912 281.335 205.8C277.702 206.708 274.447 208.6 271.723 211.249L263.7 219.272C261.429 221.543 258.326 222.829 255.072 222.829H243.643C239.783 222.829 236.074 223.889 232.971 225.781C229.338 219.726 226.159 213.52 223.586 207.314C211.325 177.493 211.401 146.462 213.595 125.724ZM353.312 119.744C353.766 120.35 354.372 120.804 355.053 121.107C355.734 121.41 356.491 121.485 357.248 121.41C358.459 122.469 359.292 123.983 359.443 125.724C361.638 146.462 361.714 177.493 349.301 207.389C346.728 213.595 343.549 219.802 339.916 225.857C336.813 223.965 333.18 222.905 329.244 222.905H317.815C314.561 222.905 311.534 221.618 309.187 219.348L301.165 211.325C298.44 208.6 295.185 206.784 291.552 205.875C293.293 198.988 295.412 192.403 297.986 186.197C310.398 156.225 332.347 134.352 348.544 121.258C349.982 120.123 351.647 119.669 353.312 119.744ZM341.505 317.891V329.32C341.505 336.056 336.056 341.505 329.32 341.505H317.891C317.286 341.505 316.68 341.505 316.075 341.581C317.664 339.992 319.026 338.099 319.935 335.905L323.265 327.806C324.097 325.763 325.687 324.173 327.73 323.341L335.829 320.01C338.024 319.102 339.916 317.74 341.505 316.15C341.505 316.68 341.505 317.286 341.505 317.891ZM277.929 355.583L269.906 347.56C269.452 347.106 268.998 346.728 268.544 346.349C270.814 346.349 273.085 345.971 275.28 345.063L283.378 341.732C285.422 340.9 287.692 340.9 289.736 341.732L297.834 345.063C299.954 345.971 302.148 346.349 304.268 346.349C304.343 346.349 304.419 346.349 304.495 346.349C304.041 346.728 303.586 347.106 303.132 347.56L295.11 355.583C290.417 360.351 282.697 360.351 277.929 355.583ZM231.609 255.147V243.719C231.609 236.983 237.058 231.533 243.794 231.533H255.223C255.828 231.533 256.434 231.533 257.039 231.457C255.45 233.047 254.088 234.939 253.179 237.134L249.849 245.232C249.017 247.276 247.427 248.865 245.384 249.698L237.285 253.028C235.09 253.936 233.198 255.299 231.609 256.888C231.609 256.358 231.609 255.753 231.609 255.147ZM295.185 217.38L303.208 225.478C303.662 225.932 304.116 226.311 304.57 226.689C302.3 226.689 300.029 227.068 297.834 227.976L289.736 231.306C287.692 232.139 285.422 232.139 283.378 231.306L275.28 227.976C273.085 227.068 270.814 226.689 268.544 226.689C268.998 226.311 269.452 225.932 269.906 225.478L277.929 217.456C282.697 212.687 290.417 212.687 295.185 217.38ZM333.71 292.99L337.04 301.089C338.781 305.327 336.737 310.171 332.574 311.988L324.476 315.318C320.313 317.059 317.059 320.313 315.318 324.476L311.988 332.574C310.247 336.813 305.327 338.856 301.089 337.04L292.99 333.71C290.871 332.877 288.676 332.423 286.481 332.423C284.286 332.423 282.092 332.877 279.972 333.71L271.874 337.04C267.635 338.781 262.792 336.737 260.975 332.574L257.645 324.476C255.904 320.313 252.65 317.059 248.487 315.318L240.388 311.988C238.345 311.155 236.755 309.566 235.923 307.522C235.09 305.479 235.09 303.208 235.923 301.165L239.253 293.066C240.994 288.903 240.994 284.286 239.253 280.048L235.923 271.95C234.182 267.711 236.15 262.867 240.388 261.051L248.487 257.721C252.65 255.98 255.904 252.725 257.645 248.563L260.975 240.464C262.716 236.226 267.635 234.182 271.874 235.999L279.972 239.329C284.135 241.07 288.752 241.07 292.99 239.329L301.089 235.999C305.327 234.258 310.171 236.301 311.988 240.464L315.318 248.563C317.059 252.725 320.313 255.98 324.476 257.721L332.574 261.051C336.813 262.792 338.856 267.711 337.04 271.95L333.71 280.048C332.045 284.211 332.045 288.828 333.71 292.99ZM228.052 275.28L231.382 283.378C232.214 285.422 232.214 287.692 231.382 289.736L228.052 297.834C227.143 300.029 226.765 302.3 226.765 304.57C226.386 304.116 226.008 303.662 225.554 303.284L217.455 295.11C212.687 290.341 212.687 282.621 217.455 277.929L225.478 269.906C225.932 269.452 226.311 268.998 226.689 268.544C226.689 270.739 227.143 273.009 228.052 275.28ZM231.609 329.244V317.815C231.609 317.21 231.609 316.604 231.533 315.999C233.123 317.664 235.015 318.951 237.21 319.859L245.308 323.189C247.352 324.022 248.941 325.611 249.774 327.655L253.104 335.753C254.012 337.948 255.374 339.84 256.964 341.43C256.358 341.354 255.753 341.354 255.147 341.354H243.719C237.058 341.43 231.609 335.98 231.609 329.244ZM345.063 297.759L341.732 289.66C340.9 287.617 340.9 285.346 341.732 283.303L345.063 275.204C345.971 273.009 346.349 270.739 346.349 268.468C346.728 268.922 347.106 269.376 347.56 269.83L355.583 277.853C357.854 280.124 359.14 283.227 359.14 286.481C359.14 289.736 357.854 292.763 355.583 295.11L347.56 303.132C347.106 303.586 346.728 304.041 346.349 304.495C346.425 302.224 345.971 299.954 345.063 297.759ZM335.905 253.104L327.806 249.774C325.763 248.941 324.173 247.352 323.341 245.308L320.01 237.21C319.102 235.015 317.74 233.123 316.15 231.533C316.756 231.609 317.361 231.609 317.967 231.609H329.395C336.132 231.609 341.581 237.058 341.581 243.794V255.223C341.581 255.828 341.581 256.434 341.657 257.039C339.992 255.299 338.099 254.012 335.905 253.104ZM111.268 222.072C111.57 224.873 112.706 227.522 114.598 229.792C128.297 246.822 151.306 269.83 182.943 282.924C186.046 284.211 189.225 285.346 192.403 286.481C189.149 287.541 185.97 288.752 182.943 290.039C151.306 303.132 128.297 326.141 114.598 343.17C112.706 345.441 111.646 348.166 111.268 350.89C96.5845 346.122 88.7131 332.045 80.539 317.21C74.2571 305.933 67.8237 294.277 57.9088 286.406C67.8237 278.61 74.2571 266.954 80.539 255.601C88.7131 240.918 96.5088 226.841 111.268 222.072ZM461.846 350.966C461.544 348.166 460.408 345.517 458.516 343.246C444.817 326.217 421.808 303.208 390.172 290.114C387.068 288.828 383.89 287.692 380.711 286.557C383.965 285.497 387.144 284.286 390.172 283C421.808 269.906 444.817 246.897 458.516 229.868C460.408 227.597 461.468 224.873 461.846 222.072C476.53 226.841 484.401 240.918 492.575 255.753C498.857 267.03 505.29 278.686 515.205 286.557C505.29 294.353 498.857 306.008 492.575 317.361C484.401 332.12 476.53 346.198 461.846 350.966ZM351.723 23.3959C368.828 21.428 386.387 19.4602 400.692 10.9076C404.779 27.0288 415.829 40.9551 426.501 54.3516C441.865 73.6516 456.321 91.892 450.721 115.582C438.989 118.155 426.274 114.522 412.877 110.662C395.091 105.591 376.699 100.293 359.67 109.905C354.372 91.0594 337.721 81.8257 321.524 72.819C309.339 66.0829 297.834 59.6496 291.25 49.5076C304.041 28.921 327.201 26.1963 351.723 23.3959ZM146.613 54.4272C157.285 40.9551 168.335 27.1045 172.422 10.9833C186.727 19.4602 204.362 21.5037 221.391 23.4716C245.838 26.272 268.998 28.921 281.789 49.5833C275.28 59.7253 263.775 66.1586 251.514 72.8947C235.317 81.9014 218.666 91.1351 213.368 109.981C196.339 100.369 177.947 105.667 160.161 110.738C146.765 114.598 134.049 118.231 122.318 115.657C116.793 91.9676 131.249 73.7272 146.613 54.4272ZM23.4716 221.315C21.5037 204.286 19.5359 186.651 10.9833 172.346C27.1045 168.259 41.0308 157.209 54.4272 146.537C73.7272 131.173 91.9676 116.717 115.657 122.318C118.231 134.049 114.598 146.765 110.738 160.161C105.667 177.947 100.369 196.339 109.981 213.368C91.1351 218.666 81.9014 235.317 72.8947 251.514C66.1586 263.7 59.7253 275.28 49.5833 281.789C28.921 268.998 26.272 245.838 23.4716 221.315ZM54.4272 426.425C40.9551 415.754 27.1045 404.703 10.9833 400.616C19.4602 386.312 21.5037 368.677 23.4716 351.647C26.272 327.125 28.921 304.041 49.5833 291.25C59.7253 297.759 66.1586 309.263 72.8947 321.524C81.9014 337.721 91.1351 354.372 109.981 359.67C100.369 376.699 105.667 395.091 110.738 412.877C114.598 426.274 118.155 438.989 115.657 450.721C92.0433 456.246 73.7272 441.79 54.4272 426.425ZM221.391 549.567C204.286 551.535 186.727 553.503 172.422 562.055C168.335 545.934 157.285 532.008 146.613 518.611C131.249 499.311 116.793 481.071 122.394 457.381C134.125 454.808 146.84 458.441 160.237 462.301C178.023 467.372 196.415 472.67 213.444 463.057C218.742 481.903 235.393 491.137 251.59 500.144C263.775 506.956 275.355 513.313 281.865 523.455C269.074 544.117 245.914 546.766 221.391 549.567ZM426.501 518.611C415.829 532.083 404.779 545.934 400.692 562.055C386.387 553.578 368.752 551.535 351.723 549.567C327.276 546.766 304.116 544.117 291.325 523.455C297.834 513.313 309.339 506.88 321.6 500.144C337.797 491.137 354.448 481.903 359.746 463.057C376.775 472.67 395.167 467.372 412.953 462.301C426.35 458.441 439.065 454.883 450.796 457.381C456.321 481.071 441.865 499.311 426.501 518.611ZM518.611 426.425C499.311 441.79 481.071 456.246 457.381 450.645C454.808 438.914 458.441 426.198 462.301 412.802C467.372 395.015 472.67 376.624 463.057 359.594C481.903 354.296 491.137 337.645 500.144 321.448C506.88 309.263 513.313 297.759 523.455 291.174C544.117 303.965 546.766 327.125 549.567 351.572C551.535 368.677 553.503 386.236 562.055 400.541C545.934 404.779 532.083 415.754 518.611 426.425Z" fill="url(#paint0_radial_99_15)"/>
<path d="M286.557 262.943C273.539 262.943 263.019 273.539 263.019 286.481C263.019 299.499 273.615 310.02 286.633 310.02C292.915 310.02 298.818 307.598 303.284 303.132C307.749 298.667 310.171 292.763 310.171 286.481C310.096 273.539 299.575 262.943 286.557 262.943ZM297.077 297.077C294.277 299.878 290.493 301.467 286.557 301.467C278.307 301.467 271.647 294.807 271.647 286.557C271.647 278.307 278.307 271.647 286.557 271.647C294.807 271.647 301.467 278.307 301.467 286.557C301.467 290.493 299.954 294.201 297.077 297.077Z" fill="url(#paint1_radial_99_15)"/>
<defs>
<radialGradient id="paint0_radial_99_15" cx="0" cy="0" r="1" gradientUnits="userSpaceOnUse" gradientTransform="translate(286.5 286.481) rotate(90) scale(540.703 540.738)">
<stop offset="0.25" stop-color="#D6EDDC" stop-opacity="0"/>
<stop offset="1" stop-color="#A8D7B5"/>
</radialGradient>
<radialGradient id="paint1_radial_99_15" cx="0" cy="0" r="1" gradientUnits="userSpaceOnUse" gradientTransform="translate(286.595 286.481) rotate(90) scale(44.4263 44.4977)">
<stop offset="0.25" stop-color="#D6EDDC" stop-opacity="0"/>
<stop offset="1" stop-color="#A8D7B5"/>
</radialGradient>
</defs>
</svg>
